<?xml version="1.0" encoding="utf-8" standalone="no"?>
<!DOCTYPE svg PUBLIC "-//W3C//DTD SVG 1.1//EN"
  "http://www.w3.org/Graphics/SVG/1.1/DTD/svg11.dtd">
<svg xmlns:xlink="http://www.w3.org/1999/xlink" width="720pt" height="432pt" viewBox="0 0 720 432" xmlns="http://www.w3.org/2000/svg" version="1.1">
 <metadata>
  <rdf:RDF xmlns:dc="http://purl.org/dc/elements/1.1/" xmlns:cc="http://creativecommons.org/ns#" xmlns:rdf="http://www.w3.org/1999/02/22-rdf-syntax-ns#">
   <cc:Work>
    <dc:type rdf:resource="http://purl.org/dc/dcmitype/StillImage"/>
    <dc:date>2024-11-27T14:51:30.405221</dc:date>
    <dc:format>image/svg+xml</dc:format>
    <dc:creator>
     <cc:Agent>
      <dc:title>Matplotlib v3.9.2, https://matplotlib.org/</dc:title>
     </cc:Agent>
    </dc:creator>
   </cc:Work>
  </rdf:RDF>
 </metadata>
 <defs>
  <style type="text/css">*{stroke-linejoin: round; stroke-linecap: butt}</style>
 </defs>
 <g id="figure_1">
  <g id="patch_1">
   <path d="M 0 432 
L 720 432 
L 720 0 
L 0 0 
z
" style="fill: #ffffff"/>
  </g>
  <g id="axes_1">
   <g id="patch_2">
    <path d="M 90 384.48 
L 648 384.48 
L 648 51.84 
L 90 51.84 
z
" style="fill: #ffffff"/>
   </g>
   <g id="matplotlib.axis_1">
    <g id="xtick_1">
     <g id="line2d_1">
      <path d="M 110.239669 384.48 
L 110.239669 51.84 
" clip-path="url(#pf46ca2d652)" style="fill: none; stroke: #b0b0b0; stroke-width: 0.8; stroke-linecap: square"/>
     </g>
     <g id="line2d_2">
      <defs>
       <path id="me9804a384c" d="M 0 0 
L 0 3.5 
" style="stroke: #000000; stroke-width: 0.8"/>
      </defs>
      <g>
       <use xlink:href="#me9804a384c" x="110.239669" y="384.48" style="stroke: #000000; stroke-width: 0.8"/>
      </g>
     </g>
     <g id="text_1">
      <!-- 0 -->
      <g transform="translate(107.058419 399.078438) scale(0.1 -0.1)">
       <defs>
        <path id="DejaVuSans-30" d="M 2034 4250 
Q 1547 4250 1301 3770 
Q 1056 3291 1056 2328 
Q 1056 1369 1301 889 
Q 1547 409 2034 409 
Q 2525 409 2770 889 
Q 3016 1369 3016 2328 
Q 3016 3291 2770 3770 
Q 2525 4250 2034 4250 
z
M 2034 4750 
Q 2819 4750 3233 4129 
Q 3647 3509 3647 2328 
Q 3647 1150 3233 529 
Q 2819 -91 2034 -91 
Q 1250 -91 836 529 
Q 422 1150 422 2328 
Q 422 3509 836 4129 
Q 1250 4750 2034 4750 
z
" transform="scale(0.015625)"/>
       </defs>
       <use xlink:href="#DejaVuSans-30"/>
      </g>
     </g>
    </g>
    <g id="xtick_2">
     <g id="line2d_3">
      <path d="M 212.719008 384.48 
L 212.719008 51.84 
" clip-path="url(#pf46ca2d652)" style="fill: none; stroke: #b0b0b0; stroke-width: 0.8; stroke-linecap: square"/>
     </g>
     <g id="line2d_4">
      <g>
       <use xlink:href="#me9804a384c" x="212.719008" y="384.48" style="stroke: #000000; stroke-width: 0.8"/>
      </g>
     </g>
     <g id="text_2">
      <!-- 20 -->
      <g transform="translate(206.356508 399.078438) scale(0.1 -0.1)">
       <defs>
        <path id="DejaVuSans-32" d="M 1228 531 
L 3431 531 
L 3431 0 
L 469 0 
L 469 531 
Q 828 903 1448 1529 
Q 2069 2156 2228 2338 
Q 2531 2678 2651 2914 
Q 2772 3150 2772 3378 
Q 2772 3750 2511 3984 
Q 2250 4219 1831 4219 
Q 1534 4219 1204 4116 
Q 875 4013 500 3803 
L 500 4441 
Q 881 4594 1212 4672 
Q 1544 4750 1819 4750 
Q 2544 4750 2975 4387 
Q 3406 4025 3406 3419 
Q 3406 3131 3298 2873 
Q 3191 2616 2906 2266 
Q 2828 2175 2409 1742 
Q 1991 1309 1228 531 
z
" transform="scale(0.015625)"/>
       </defs>
       <use xlink:href="#DejaVuSans-32"/>
       <use xlink:href="#DejaVuSans-30" x="63.623047"/>
      </g>
     </g>
    </g>
    <g id="xtick_3">
     <g id="line2d_5">
      <path d="M 315.198347 384.48 
L 315.198347 51.84 
" clip-path="url(#pf46ca2d652)" style="fill: none; stroke: #b0b0b0; stroke-width: 0.8; stroke-linecap: square"/>
     </g>
     <g id="line2d_6">
      <g>
       <use xlink:href="#me9804a384c" x="315.198347" y="384.48" style="stroke: #000000; stroke-width: 0.8"/>
      </g>
     </g>
     <g id="text_3">
      <!-- 40 -->
      <g transform="translate(308.835847 399.078438) scale(0.1 -0.1)">
       <defs>
        <path id="DejaVuSans-34" d="M 2419 4116 
L 825 1625 
L 2419 1625 
L 2419 4116 
z
M 2253 4666 
L 3047 4666 
L 3047 1625 
L 3713 1625 
L 3713 1100 
L 3047 1100 
L 3047 0 
L 2419 0 
L 2419 1100 
L 313 1100 
L 313 1709 
L 2253 4666 
z
" transform="scale(0.015625)"/>
       </defs>
       <use xlink:href="#DejaVuSans-34"/>
       <use xlink:href="#DejaVuSans-30" x="63.623047"/>
      </g>
     </g>
    </g>
    <g id="xtick_4">
     <g id="line2d_7">
      <path d="M 417.677686 384.48 
L 417.677686 51.84 
" clip-path="url(#pf46ca2d652)" style="fill: none; stroke: #b0b0b0; stroke-width: 0.8; stroke-linecap: square"/>
     </g>
     <g id="line2d_8">
      <g>
       <use xlink:href="#me9804a384c" x="417.677686" y="384.48" style="stroke: #000000; stroke-width: 0.8"/>
      </g>
     </g>
     <g id="text_4">
      <!-- 60 -->
      <g transform="translate(411.315186 399.078438) scale(0.1 -0.1)">
       <defs>
        <path id="DejaVuSans-36" d="M 2113 2584 
Q 1688 2584 1439 2293 
Q 1191 2003 1191 1497 
Q 1191 994 1439 701 
Q 1688 409 2113 409 
Q 2538 409 2786 701 
Q 3034 994 3034 1497 
Q 3034 2003 2786 2293 
Q 2538 2584 2113 2584 
z
M 3366 4563 
L 3366 3988 
Q 3128 4100 2886 4159 
Q 2644 4219 2406 4219 
Q 1781 4219 1451 3797 
Q 1122 3375 1075 2522 
Q 1259 2794 1537 2939 
Q 1816 3084 2150 3084 
Q 2853 3084 3261 2657 
Q 3669 2231 3669 1497 
Q 3669 778 3244 343 
Q 2819 -91 2113 -91 
Q 1303 -91 875 529 
Q 447 1150 447 2328 
Q 447 3434 972 4092 
Q 1497 4750 2381 4750 
Q 2619 4750 2861 4703 
Q 3103 4656 3366 4563 
z
" transform="scale(0.015625)"/>
       </defs>
       <use xlink:href="#DejaVuSans-36"/>
       <use xlink:href="#DejaVuSans-30" x="63.623047"/>
      </g>
     </g>
    </g>
    <g id="xtick_5">
     <g id="line2d_9">
      <path d="M 520.157025 384.48 
L 520.157025 51.84 
" clip-path="url(#pf46ca2d652)" style="fill: none; stroke: #b0b0b0; stroke-width: 0.8; stroke-linecap: square"/>
     </g>
     <g id="line2d_10">
      <g>
       <use xlink:href="#me9804a384c" x="520.157025" y="384.48" style="stroke: #000000; stroke-width: 0.8"/>
      </g>
     </g>
     <g id="text_5">
      <!-- 80 -->
      <g transform="translate(513.794525 399.078438) scale(0.1 -0.1)">
       <defs>
        <path id="DejaVuSans-38" d="M 2034 2216 
Q 1584 2216 1326 1975 
Q 1069 1734 1069 1313 
Q 1069 891 1326 650 
Q 1584 409 2034 409 
Q 2484 409 2743 651 
Q 3003 894 3003 1313 
Q 3003 1734 2745 1975 
Q 2488 2216 2034 2216 
z
M 1403 2484 
Q 997 2584 770 2862 
Q 544 3141 544 3541 
Q 544 4100 942 4425 
Q 1341 4750 2034 4750 
Q 2731 4750 3128 4425 
Q 3525 4100 3525 3541 
Q 3525 3141 3298 2862 
Q 3072 2584 2669 2484 
Q 3125 2378 3379 2068 
Q 3634 1759 3634 1313 
Q 3634 634 3220 271 
Q 2806 -91 2034 -91 
Q 1263 -91 848 271 
Q 434 634 434 1313 
Q 434 1759 690 2068 
Q 947 2378 1403 2484 
z
M 1172 3481 
Q 1172 3119 1398 2916 
Q 1625 2713 2034 2713 
Q 2441 2713 2670 2916 
Q 2900 3119 2900 3481 
Q 2900 3844 2670 4047 
Q 2441 4250 2034 4250 
Q 1625 4250 1398 4047 
Q 1172 3844 1172 3481 
z
" transform="scale(0.015625)"/>
       </defs>
       <use xlink:href="#DejaVuSans-38"/>
       <use xlink:href="#DejaVuSans-30" x="63.623047"/>
      </g>
     </g>
    </g>
    <g id="xtick_6">
     <g id="line2d_11">
      <path d="M 622.636364 384.48 
L 622.636364 51.84 
" clip-path="url(#pf46ca2d652)" style="fill: none; stroke: #b0b0b0; stroke-width: 0.8; stroke-linecap: square"/>
     </g>
     <g id="line2d_12">
      <g>
       <use xlink:href="#me9804a384c" x="622.636364" y="384.48" style="stroke: #000000; stroke-width: 0.8"/>
      </g>
     </g>
     <g id="text_6">
      <!-- 100 -->
      <g transform="translate(613.092614 399.078438) scale(0.1 -0.1)">
       <defs>
        <path id="DejaVuSans-31" d="M 794 531 
L 1825 531 
L 1825 4091 
L 703 3866 
L 703 4441 
L 1819 4666 
L 2450 4666 
L 2450 531 
L 3481 531 
L 3481 0 
L 794 0 
L 794 531 
z
" transform="scale(0.015625)"/>
       </defs>
       <use xlink:href="#DejaVuSans-31"/>
       <use xlink:href="#DejaVuSans-30" x="63.623047"/>
       <use xlink:href="#DejaVuSans-30" x="127.246094"/>
      </g>
     </g>
    </g>
    <g id="text_7">
     <!-- Epoch -->
     <g transform="translate(353.689062 412.756563) scale(0.1 -0.1)">
      <defs>
       <path id="DejaVuSans-45" d="M 628 4666 
L 3578 4666 
L 3578 4134 
L 1259 4134 
L 1259 2753 
L 3481 2753 
L 3481 2222 
L 1259 2222 
L 1259 531 
L 3634 531 
L 3634 0 
L 628 0 
L 628 4666 
z
" transform="scale(0.015625)"/>
       <path id="DejaVuSans-70" d="M 1159 525 
L 1159 -1331 
L 581 -1331 
L 581 3500 
L 1159 3500 
L 1159 2969 
Q 1341 3281 1617 3432 
Q 1894 3584 2278 3584 
Q 2916 3584 3314 3078 
Q 3713 2572 3713 1747 
Q 3713 922 3314 415 
Q 2916 -91 2278 -91 
Q 1894 -91 1617 61 
Q 1341 213 1159 525 
z
M 3116 1747 
Q 3116 2381 2855 2742 
Q 2594 3103 2138 3103 
Q 1681 3103 1420 2742 
Q 1159 2381 1159 1747 
Q 1159 1113 1420 752 
Q 1681 391 2138 391 
Q 2594 391 2855 752 
Q 3116 1113 3116 1747 
z
" transform="scale(0.015625)"/>
       <path id="DejaVuSans-6f" d="M 1959 3097 
Q 1497 3097 1228 2736 
Q 959 2375 959 1747 
Q 959 1119 1226 758 
Q 1494 397 1959 397 
Q 2419 397 2687 759 
Q 2956 1122 2956 1747 
Q 2956 2369 2687 2733 
Q 2419 3097 1959 3097 
z
M 1959 3584 
Q 2709 3584 3137 3096 
Q 3566 2609 3566 1747 
Q 3566 888 3137 398 
Q 2709 -91 1959 -91 
Q 1206 -91 779 398 
Q 353 888 353 1747 
Q 353 2609 779 3096 
Q 1206 3584 1959 3584 
z
" transform="scale(0.015625)"/>
       <path id="DejaVuSans-63" d="M 3122 3366 
L 3122 2828 
Q 2878 2963 2633 3030 
Q 2388 3097 2138 3097 
Q 1578 3097 1268 2742 
Q 959 2388 959 1747 
Q 959 1106 1268 751 
Q 1578 397 2138 397 
Q 2388 397 2633 464 
Q 2878 531 3122 666 
L 3122 134 
Q 2881 22 2623 -34 
Q 2366 -91 2075 -91 
Q 1284 -91 818 406 
Q 353 903 353 1747 
Q 353 2603 823 3093 
Q 1294 3584 2113 3584 
Q 2378 3584 2631 3529 
Q 2884 3475 3122 3366 
z
" transform="scale(0.015625)"/>
       <path id="DejaVuSans-68" d="M 3513 2113 
L 3513 0 
L 2938 0 
L 2938 2094 
Q 2938 2591 2744 2837 
Q 2550 3084 2163 3084 
Q 1697 3084 1428 2787 
Q 1159 2491 1159 1978 
L 1159 0 
L 581 0 
L 581 4863 
L 1159 4863 
L 1159 2956 
Q 1366 3272 1645 3428 
Q 1925 3584 2291 3584 
Q 2894 3584 3203 3211 
Q 3513 2838 3513 2113 
z
" transform="scale(0.015625)"/>
      </defs>
      <use xlink:href="#DejaVuSans-45"/>
      <use xlink:href="#DejaVuSans-70" x="63.183594"/>
      <use xlink:href="#DejaVuSans-6f" x="126.660156"/>
      <use xlink:href="#DejaVuSans-63" x="187.841797"/>
      <use xlink:href="#DejaVuSans-68" x="242.822266"/>
     </g>
    </g>
   </g>
   <g id="matplotlib.axis_2">
    <g id="ytick_1">
     <g id="line2d_13">
      <path d="M 90 372.071139 
L 648 372.071139 
" clip-path="url(#pf46ca2d652)" style="fill: none; stroke: #b0b0b0; stroke-width: 0.8; stroke-linecap: square"/>
     </g>
     <g id="line2d_14">
      <defs>
       <path id="m383b242b60" d="M 0 0 
L -3.5 0 
" style="stroke: #000000; stroke-width: 0.8"/>
      </defs>
      <g>
       <use xlink:href="#m383b242b60" x="90" y="372.071139" style="stroke: #000000; stroke-width: 0.8"/>
      </g>
     </g>
     <g id="text_8">
      <!-- 0.0 -->
      <g transform="translate(67.096875 375.870358) scale(0.1 -0.1)">
       <defs>
        <path id="DejaVuSans-2e" d="M 684 794 
L 1344 794 
L 1344 0 
L 684 0 
L 684 794 
z
" transform="scale(0.015625)"/>
       </defs>
       <use xlink:href="#DejaVuSans-30"/>
       <use xlink:href="#DejaVuSans-2e" x="63.623047"/>
       <use xlink:href="#DejaVuSans-30" x="95.410156"/>
      </g>
     </g>
    </g>
    <g id="ytick_2">
     <g id="line2d_15">
      <path d="M 90 312.090181 
L 648 312.090181 
" clip-path="url(#pf46ca2d652)" style="fill: none; stroke: #b0b0b0; stroke-width: 0.8; stroke-linecap: square"/>
     </g>
     <g id="line2d_16">
      <g>
       <use xlink:href="#m383b242b60" x="90" y="312.090181" style="stroke: #000000; stroke-width: 0.8"/>
      </g>
     </g>
     <g id="text_9">
      <!-- 0.5 -->
      <g transform="translate(67.096875 315.8894) scale(0.1 -0.1)">
       <defs>
        <path id="DejaVuSans-35" d="M 691 4666 
L 3169 4666 
L 3169 4134 
L 1269 4134 
L 1269 2991 
Q 1406 3038 1543 3061 
Q 1681 3084 1819 3084 
Q 2600 3084 3056 2656 
Q 3513 2228 3513 1497 
Q 3513 744 3044 326 
Q 2575 -91 1722 -91 
Q 1428 -91 1123 -41 
Q 819 9 494 109 
L 494 744 
Q 775 591 1075 516 
Q 1375 441 1709 441 
Q 2250 441 2565 725 
Q 2881 1009 2881 1497 
Q 2881 1984 2565 2268 
Q 2250 2553 1709 2553 
Q 1456 2553 1204 2497 
Q 953 2441 691 2322 
L 691 4666 
z
" transform="scale(0.015625)"/>
       </defs>
       <use xlink:href="#DejaVuSans-30"/>
       <use xlink:href="#DejaVuSans-2e" x="63.623047"/>
       <use xlink:href="#DejaVuSans-35" x="95.410156"/>
      </g>
     </g>
    </g>
    <g id="ytick_3">
     <g id="line2d_17">
      <path d="M 90 252.109222 
L 648 252.109222 
" clip-path="url(#pf46ca2d652)" style="fill: none; stroke: #b0b0b0; stroke-width: 0.8; stroke-linecap: square"/>
     </g>
     <g id="line2d_18">
      <g>
       <use xlink:href="#m383b242b60" x="90" y="252.109222" style="stroke: #000000; stroke-width: 0.8"/>
      </g>
     </g>
     <g id="text_10">
      <!-- 1.0 -->
      <g transform="translate(67.096875 255.908441) scale(0.1 -0.1)">
       <use xlink:href="#DejaVuSans-31"/>
       <use xlink:href="#DejaVuSans-2e" x="63.623047"/>
       <use xlink:href="#DejaVuSans-30" x="95.410156"/>
      </g>
     </g>
    </g>
    <g id="ytick_4">
     <g id="line2d_19">
      <path d="M 90 192.128264 
L 648 192.128264 
" clip-path="url(#pf46ca2d652)" style="fill: none; stroke: #b0b0b0; stroke-width: 0.8; stroke-linecap: square"/>
     </g>
     <g id="line2d_20">
      <g>
       <use xlink:href="#m383b242b60" x="90" y="192.128264" style="stroke: #000000; stroke-width: 0.8"/>
      </g>
     </g>
     <g id="text_11">
      <!-- 1.5 -->
      <g transform="translate(67.096875 195.927483) scale(0.1 -0.1)">
       <use xlink:href="#DejaVuSans-31"/>
       <use xlink:href="#DejaVuSans-2e" x="63.623047"/>
       <use xlink:href="#DejaVuSans-35" x="95.410156"/>
      </g>
     </g>
    </g>
    <g id="ytick_5">
     <g id="line2d_21">
      <path d="M 90 132.147306 
L 648 132.147306 
" clip-path="url(#pf46ca2d652)" style="fill: none; stroke: #b0b0b0; stroke-width: 0.8; stroke-linecap: square"/>
     </g>
     <g id="line2d_22">
      <g>
       <use xlink:href="#m383b242b60" x="90" y="132.147306" style="stroke: #000000; stroke-width: 0.8"/>
      </g>
     </g>
     <g id="text_12">
      <!-- 2.0 -->
      <g transform="translate(67.096875 135.946524) scale(0.1 -0.1)">
       <use xlink:href="#DejaVuSans-32"/>
       <use xlink:href="#DejaVuSans-2e" x="63.623047"/>
       <use xlink:href="#DejaVuSans-30" x="95.410156"/>
      </g>
     </g>
    </g>
    <g id="ytick_6">
     <g id="line2d_23">
      <path d="M 90 72.166347 
L 648 72.166347 
" clip-path="url(#pf46ca2d652)" style="fill: none; stroke: #b0b0b0; stroke-width: 0.8; stroke-linecap: square"/>
     </g>
     <g id="line2d_24">
      <g>
       <use xlink:href="#m383b242b60" x="90" y="72.166347" style="stroke: #000000; stroke-width: 0.8"/>
      </g>
     </g>
     <g id="text_13">
      <!-- 2.5 -->
      <g transform="translate(67.096875 75.965566) scale(0.1 -0.1)">
       <use xlink:href="#DejaVuSans-32"/>
       <use xlink:href="#DejaVuSans-2e" x="63.623047"/>
       <use xlink:href="#DejaVuSans-35" x="95.410156"/>
      </g>
     </g>
    </g>
    <g id="text_14">
     <!-- Loss -->
     <g transform="translate(61.017187 229.127187) rotate(-90) scale(0.1 -0.1)">
      <defs>
       <path id="DejaVuSans-4c" d="M 628 4666 
L 1259 4666 
L 1259 531 
L 3531 531 
L 3531 0 
L 628 0 
L 628 4666 
z
" transform="scale(0.015625)"/>
       <path id="DejaVuSans-73" d="M 2834 3397 
L 2834 2853 
Q 2591 2978 2328 3040 
Q 2066 3103 1784 3103 
Q 1356 3103 1142 2972 
Q 928 2841 928 2578 
Q 928 2378 1081 2264 
Q 1234 2150 1697 2047 
L 1894 2003 
Q 2506 1872 2764 1633 
Q 3022 1394 3022 966 
Q 3022 478 2636 193 
Q 2250 -91 1575 -91 
Q 1294 -91 989 -36 
Q 684 19 347 128 
L 347 722 
Q 666 556 975 473 
Q 1284 391 1588 391 
Q 1994 391 2212 530 
Q 2431 669 2431 922 
Q 2431 1156 2273 1281 
Q 2116 1406 1581 1522 
L 1381 1569 
Q 847 1681 609 1914 
Q 372 2147 372 2553 
Q 372 3047 722 3315 
Q 1072 3584 1716 3584 
Q 2034 3584 2315 3537 
Q 2597 3491 2834 3397 
z
" transform="scale(0.015625)"/>
      </defs>
      <use xlink:href="#DejaVuSans-4c"/>
      <use xlink:href="#DejaVuSans-6f" x="53.962891"/>
      <use xlink:href="#DejaVuSans-73" x="115.144531"/>
      <use xlink:href="#DejaVuSans-73" x="167.244141"/>
     </g>
    </g>
   </g>
   <g id="line2d_25">
    <path d="M 115.363636 316.996623 
L 120.487603 334.031215 
L 125.61157 339.957334 
L 130.735537 341.92471 
L 135.859504 346.531247 
L 140.983471 347.526931 
L 146.107438 347.862825 
L 151.231405 350.537975 
L 156.355372 352.733278 
L 161.479339 352.313412 
L 166.603306 352.817252 
L 171.727273 352.19345 
L 176.85124 352.69729 
L 181.975207 355.756319 
L 187.099174 355.444418 
L 192.22314 355.300463 
L 197.347107 354.532707 
L 202.471074 354.46073 
L 207.595041 356.967934 
L 212.719008 355.528391 
L 217.842975 357.723694 
L 222.966942 357.723694 
L 228.090909 353.525027 
L 233.214876 358.023599 
L 238.338843 358.707382 
L 243.46281 358.311507 
L 248.586777 358.707382 
L 253.710744 358.971298 
L 258.834711 358.767363 
L 263.958678 358.959302 
L 269.082645 359.09126 
L 274.206612 360.626772 
L 279.330579 360.182913 
L 284.454545 359.379169 
L 289.578512 359.439149 
L 294.702479 360.338864 
L 299.826446 358.251526 
L 304.950413 361.586468 
L 310.07438 360.026963 
L 315.198347 360.926677 
L 320.322314 361.45451 
L 325.446281 362.126296 
L 330.570248 362.87006 
L 335.694215 363.3739 
L 340.818182 362.71411 
L 345.942149 362.258255 
L 351.066116 363.12198 
L 356.190083 363.637817 
L 361.31405 363.769775 
L 366.438017 363.853748 
L 371.561983 363.145973 
L 376.68595 363.817759 
L 381.809917 364.105668 
L 386.933884 365.173329 
L 392.057851 364.873424 
L 397.181818 365.065363 
L 402.305785 363.445877 
L 407.429752 365.377264 
L 412.553719 365.797131 
L 417.677686 365.569203 
L 422.801653 365.617188 
L 427.92562 365.905097 
L 433.049587 366.324964 
L 438.173554 366.8408 
L 443.297521 366.684849 
L 448.421488 367.128708 
L 453.545455 367.044735 
L 458.669421 367.24867 
L 463.793388 367.560571 
L 468.917355 367.800495 
L 474.041322 367.84848 
L 479.165289 368.076407 
L 484.289256 367.872472 
L 489.413223 367.560571 
L 494.53719 368.196369 
L 499.661157 368.208366 
L 504.785124 368.280343 
L 509.909091 368.60424 
L 515.033058 368.50827 
L 520.157025 368.76019 
L 525.280992 368.616236 
L 530.404959 368.652225 
L 535.528926 368.85616 
L 540.652893 368.988118 
L 545.77686 368.808175 
L 550.900826 368.964126 
L 556.024793 369.120076 
L 561.14876 369.036103 
L 566.272727 369.168061 
L 571.396694 369.240038 
L 576.520661 369.156065 
L 581.644628 369.10808 
L 586.768595 369.180057 
L 591.892562 369.192053 
L 597.016529 369.288023 
L 602.140496 369.288023 
L 607.264463 369.336008 
L 612.38843 369.276027 
L 617.512397 369.36 
L 622.636364 369.312015 
" clip-path="url(#pf46ca2d652)" style="fill: none; stroke: #0000ff; stroke-width: 1.5; stroke-linecap: square"/>
    <defs>
     <path id="m75609d3b14" d="M 0 3 
C 0.795609 3 1.55874 2.683901 2.12132 2.12132 
C 2.683901 1.55874 3 0.795609 3 0 
C 3 -0.795609 2.683901 -1.55874 2.12132 -2.12132 
C 1.55874 -2.683901 0.795609 -3 0 -3 
C -0.795609 -3 -1.55874 -2.683901 -2.12132 -2.12132 
C -2.683901 -1.55874 -3 -0.795609 -3 0 
C -3 0.795609 -2.683901 1.55874 -2.12132 2.12132 
C -1.55874 2.683901 -0.795609 3 0 3 
z
" style="stroke: #0000ff"/>
    </defs>
    <g clip-path="url(#pf46ca2d652)">
     <use xlink:href="#m75609d3b14" x="115.363636" y="316.996623" style="fill: #0000ff; stroke: #0000ff"/>
     <use xlink:href="#m75609d3b14" x="120.487603" y="334.031215" style="fill: #0000ff; stroke: #0000ff"/>
     <use xlink:href="#m75609d3b14" x="125.61157" y="339.957334" style="fill: #0000ff; stroke: #0000ff"/>
     <use xlink:href="#m75609d3b14" x="130.735537" y="341.92471" style="fill: #0000ff; stroke: #0000ff"/>
     <use xlink:href="#m75609d3b14" x="135.859504" y="346.531247" style="fill: #0000ff; stroke: #0000ff"/>
     <use xlink:href="#m75609d3b14" x="140.983471" y="347.526931" style="fill: #0000ff; stroke: #0000ff"/>
     <use xlink:href="#m75609d3b14" x="146.107438" y="347.862825" style="fill: #0000ff; stroke: #0000ff"/>
     <use xlink:href="#m75609d3b14" x="151.231405" y="350.537975" style="fill: #0000ff; stroke: #0000ff"/>
     <use xlink:href="#m75609d3b14" x="156.355372" y="352.733278" style="fill: #0000ff; stroke: #0000ff"/>
     <use xlink:href="#m75609d3b14" x="161.479339" y="352.313412" style="fill: #0000ff; stroke: #0000ff"/>
     <use xlink:href="#m75609d3b14" x="166.603306" y="352.817252" style="fill: #0000ff; stroke: #0000ff"/>
     <use xlink:href="#m75609d3b14" x="171.727273" y="352.19345" style="fill: #0000ff; stroke: #0000ff"/>
     <use xlink:href="#m75609d3b14" x="176.85124" y="352.69729" style="fill: #0000ff; stroke: #0000ff"/>
     <use xlink:href="#m75609d3b14" x="181.975207" y="355.756319" style="fill: #0000ff; stroke: #0000ff"/>
     <use xlink:href="#m75609d3b14" x="187.099174" y="355.444418" style="fill: #0000ff; stroke: #0000ff"/>
     <use xlink:href="#m75609d3b14" x="192.22314" y="355.300463" style="fill: #0000ff; stroke: #0000ff"/>
     <use xlink:href="#m75609d3b14" x="197.347107" y="354.532707" style="fill: #0000ff; stroke: #0000ff"/>
     <use xlink:href="#m75609d3b14" x="202.471074" y="354.46073" style="fill: #0000ff; stroke: #0000ff"/>
     <use xlink:href="#m75609d3b14" x="207.595041" y="356.967934" style="fill: #0000ff; stroke: #0000ff"/>
     <use xlink:href="#m75609d3b14" x="212.719008" y="355.528391" style="fill: #0000ff; stroke: #0000ff"/>
     <use xlink:href="#m75609d3b14" x="217.842975" y="357.723694" style="fill: #0000ff; stroke: #0000ff"/>
     <use xlink:href="#m75609d3b14" x="222.966942" y="357.723694" style="fill: #0000ff; stroke: #0000ff"/>
     <use xlink:href="#m75609d3b14" x="228.090909" y="353.525027" style="fill: #0000ff; stroke: #0000ff"/>
     <use xlink:href="#m75609d3b14" x="233.214876" y="358.023599" style="fill: #0000ff; stroke: #0000ff"/>
     <use xlink:href="#m75609d3b14" x="238.338843" y="358.707382" style="fill: #0000ff; stroke: #0000ff"/>
     <use xlink:href="#m75609d3b14" x="243.46281" y="358.311507" style="fill: #0000ff; stroke: #0000ff"/>
     <use xlink:href="#m75609d3b14" x="248.586777" y="358.707382" style="fill: #0000ff; stroke: #0000ff"/>
     <use xlink:href="#m75609d3b14" x="253.710744" y="358.971298" style="fill: #0000ff; stroke: #0000ff"/>
     <use xlink:href="#m75609d3b14" x="258.834711" y="358.767363" style="fill: #0000ff; stroke: #0000ff"/>
     <use xlink:href="#m75609d3b14" x="263.958678" y="358.959302" style="fill: #0000ff; stroke: #0000ff"/>
     <use xlink:href="#m75609d3b14" x="269.082645" y="359.09126" style="fill: #0000ff; stroke: #0000ff"/>
     <use xlink:href="#m75609d3b14" x="274.206612" y="360.626772" style="fill: #0000ff; stroke: #0000ff"/>
     <use xlink:href="#m75609d3b14" x="279.330579" y="360.182913" style="fill: #0000ff; stroke: #0000ff"/>
     <use xlink:href="#m75609d3b14" x="284.454545" y="359.379169" style="fill: #0000ff; stroke: #0000ff"/>
     <use xlink:href="#m75609d3b14" x="289.578512" y="359.439149" style="fill: #0000ff; stroke: #0000ff"/>
     <use xlink:href="#m75609d3b14" x="294.702479" y="360.338864" style="fill: #0000ff; stroke: #0000ff"/>
     <use xlink:href="#m75609d3b14" x="299.826446" y="358.251526" style="fill: #0000ff; stroke: #0000ff"/>
     <use xlink:href="#m75609d3b14" x="304.950413" y="361.586468" style="fill: #0000ff; stroke: #0000ff"/>
     <use xlink:href="#m75609d3b14" x="310.07438" y="360.026963" style="fill: #0000ff; stroke: #0000ff"/>
     <use xlink:href="#m75609d3b14" x="315.198347" y="360.926677" style="fill: #0000ff; stroke: #0000ff"/>
     <use xlink:href="#m75609d3b14" x="320.322314" y="361.45451" style="fill: #0000ff; stroke: #0000ff"/>
     <use xlink:href="#m75609d3b14" x="325.446281" y="362.126296" style="fill: #0000ff; stroke: #0000ff"/>
     <use xlink:href="#m75609d3b14" x="330.570248" y="362.87006" style="fill: #0000ff; stroke: #0000ff"/>
     <use xlink:href="#m75609d3b14" x="335.694215" y="363.3739" style="fill: #0000ff; stroke: #0000ff"/>
     <use xlink:href="#m75609d3b14" x="340.818182" y="362.71411" style="fill: #0000ff; stroke: #0000ff"/>
     <use xlink:href="#m75609d3b14" x="345.942149" y="362.258255" style="fill: #0000ff; stroke: #0000ff"/>
     <use xlink:href="#m75609d3b14" x="351.066116" y="363.12198" style="fill: #0000ff; stroke: #0000ff"/>
     <use xlink:href="#m75609d3b14" x="356.190083" y="363.637817" style="fill: #0000ff; stroke: #0000ff"/>
     <use xlink:href="#m75609d3b14" x="361.31405" y="363.769775" style="fill: #0000ff; stroke: #0000ff"/>
     <use xlink:href="#m75609d3b14" x="366.438017" y="363.853748" style="fill: #0000ff; stroke: #0000ff"/>
     <use xlink:href="#m75609d3b14" x="371.561983" y="363.145973" style="fill: #0000ff; stroke: #0000ff"/>
     <use xlink:href="#m75609d3b14" x="376.68595" y="363.817759" style="fill: #0000ff; stroke: #0000ff"/>
     <use xlink:href="#m75609d3b14" x="381.809917" y="364.105668" style="fill: #0000ff; stroke: #0000ff"/>
     <use xlink:href="#m75609d3b14" x="386.933884" y="365.173329" style="fill: #0000ff; stroke: #0000ff"/>
     <use xlink:href="#m75609d3b14" x="392.057851" y="364.873424" style="fill: #0000ff; stroke: #0000ff"/>
     <use xlink:href="#m75609d3b14" x="397.181818" y="365.065363" style="fill: #0000ff; stroke: #0000ff"/>
     <use xlink:href="#m75609d3b14" x="402.305785" y="363.445877" style="fill: #0000ff; stroke: #0000ff"/>
     <use xlink:href="#m75609d3b14" x="407.429752" y="365.377264" style="fill: #0000ff; stroke: #0000ff"/>
     <use xlink:href="#m75609d3b14" x="412.553719" y="365.797131" style="fill: #0000ff; stroke: #0000ff"/>
     <use xlink:href="#m75609d3b14" x="417.677686" y="365.569203" style="fill: #0000ff; stroke: #0000ff"/>
     <use xlink:href="#m75609d3b14" x="422.801653" y="365.617188" style="fill: #0000ff; stroke: #0000ff"/>
     <use xlink:href="#m75609d3b14" x="427.92562" y="365.905097" style="fill: #0000ff; stroke: #0000ff"/>
     <use xlink:href="#m75609d3b14" x="433.049587" y="366.324964" style="fill: #0000ff; stroke: #0000ff"/>
     <use xlink:href="#m75609d3b14" x="438.173554" y="366.8408" style="fill: #0000ff; stroke: #0000ff"/>
     <use xlink:href="#m75609d3b14" x="443.297521" y="366.684849" style="fill: #0000ff; stroke: #0000ff"/>
     <use xlink:href="#m75609d3b14" x="448.421488" y="367.128708" style="fill: #0000ff; stroke: #0000ff"/>
     <use xlink:href="#m75609d3b14" x="453.545455" y="367.044735" style="fill: #0000ff; stroke: #0000ff"/>
     <use xlink:href="#m75609d3b14" x="458.669421" y="367.24867" style="fill: #0000ff; stroke: #0000ff"/>
     <use xlink:href="#m75609d3b14" x="463.793388" y="367.560571" style="fill: #0000ff; stroke: #0000ff"/>
     <use xlink:href="#m75609d3b14" x="468.917355" y="367.800495" style="fill: #0000ff; stroke: #0000ff"/>
     <use xlink:href="#m75609d3b14" x="474.041322" y="367.84848" style="fill: #0000ff; stroke: #0000ff"/>
     <use xlink:href="#m75609d3b14" x="479.165289" y="368.076407" style="fill: #0000ff; stroke: #0000ff"/>
     <use xlink:href="#m75609d3b14" x="484.289256" y="367.872472" style="fill: #0000ff; stroke: #0000ff"/>
     <use xlink:href="#m75609d3b14" x="489.413223" y="367.560571" style="fill: #0000ff; stroke: #0000ff"/>
     <use xlink:href="#m75609d3b14" x="494.53719" y="368.196369" style="fill: #0000ff; stroke: #0000ff"/>
     <use xlink:href="#m75609d3b14" x="499.661157" y="368.208366" style="fill: #0000ff; stroke: #0000ff"/>
     <use xlink:href="#m75609d3b14" x="504.785124" y="368.280343" style="fill: #0000ff; stroke: #0000ff"/>
     <use xlink:href="#m75609d3b14" x="509.909091" y="368.60424" style="fill: #0000ff; stroke: #0000ff"/>
     <use xlink:href="#m75609d3b14" x="515.033058" y="368.50827" style="fill: #0000ff; stroke: #0000ff"/>
     <use xlink:href="#m75609d3b14" x="520.157025" y="368.76019" style="fill: #0000ff; stroke: #0000ff"/>
     <use xlink:href="#m75609d3b14" x="525.280992" y="368.616236" style="fill: #0000ff; stroke: #0000ff"/>
     <use xlink:href="#m75609d3b14" x="530.404959" y="368.652225" style="fill: #0000ff; stroke: #0000ff"/>
     <use xlink:href="#m75609d3b14" x="535.528926" y="368.85616" style="fill: #0000ff; stroke: #0000ff"/>
     <use xlink:href="#m75609d3b14" x="540.652893" y="368.988118" style="fill: #0000ff; stroke: #0000ff"/>
     <use xlink:href="#m75609d3b14" x="545.77686" y="368.808175" style="fill: #0000ff; stroke: #0000ff"/>
     <use xlink:href="#m75609d3b14" x="550.900826" y="368.964126" style="fill: #0000ff; stroke: #0000ff"/>
     <use xlink:href="#m75609d3b14" x="556.024793" y="369.120076" style="fill: #0000ff; stroke: #0000ff"/>
     <use xlink:href="#m75609d3b14" x="561.14876" y="369.036103" style="fill: #0000ff; stroke: #0000ff"/>
     <use xlink:href="#m75609d3b14" x="566.272727" y="369.168061" style="fill: #0000ff; stroke: #0000ff"/>
     <use xlink:href="#m75609d3b14" x="571.396694" y="369.240038" style="fill: #0000ff; stroke: #0000ff"/>
     <use xlink:href="#m75609d3b14" x="576.520661" y="369.156065" style="fill: #0000ff; stroke: #0000ff"/>
     <use xlink:href="#m75609d3b14" x="581.644628" y="369.10808" style="fill: #0000ff; stroke: #0000ff"/>
     <use xlink:href="#m75609d3b14" x="586.768595" y="369.180057" style="fill: #0000ff; stroke: #0000ff"/>
     <use xlink:href="#m75609d3b14" x="591.892562" y="369.192053" style="fill: #0000ff; stroke: #0000ff"/>
     <use xlink:href="#m75609d3b14" x="597.016529" y="369.288023" style="fill: #0000ff; stroke: #0000ff"/>
     <use xlink:href="#m75609d3b14" x="602.140496" y="369.288023" style="fill: #0000ff; stroke: #0000ff"/>
     <use xlink:href="#m75609d3b14" x="607.264463" y="369.336008" style="fill: #0000ff; stroke: #0000ff"/>
     <use xlink:href="#m75609d3b14" x="612.38843" y="369.276027" style="fill: #0000ff; stroke: #0000ff"/>
     <use xlink:href="#m75609d3b14" x="617.512397" y="369.36" style="fill: #0000ff; stroke: #0000ff"/>
     <use xlink:href="#m75609d3b14" x="622.636364" y="369.312015" style="fill: #0000ff; stroke: #0000ff"/>
    </g>
   </g>
   <g id="line2d_26">
    <path d="M 115.363636 259.594846 
L 120.487603 294.743688 
L 125.61157 330.672282 
L 130.735537 333.07152 
L 135.859504 323.738483 
L 140.983471 276.269553 
L 146.107438 338.985643 
L 151.231405 327.68523 
L 156.355372 311.382406 
L 161.479339 343.640165 
L 166.603306 350.765903 
L 171.727273 66.96 
L 176.85124 324.254319 
L 181.975207 345.943434 
L 187.099174 333.32344 
L 192.22314 152.900717 
L 197.347107 347.670885 
L 202.471074 250.993577 
L 207.595041 153.752447 
L 212.719008 346.135373 
L 217.842975 225.837563 
L 222.966942 96.038769 
L 228.090909 226.557334 
L 233.214876 351.953526 
L 238.338843 332.555684 
L 243.46281 180.443973 
L 248.586777 342.164633 
L 253.710744 319.02398 
L 258.834711 351.821568 
L 263.958678 221.314998 
L 269.082645 344.575868 
L 274.206612 345.895449 
L 279.330579 346.435278 
L 284.454545 336.862317 
L 289.578512 353.800939 
L 294.702479 317.620425 
L 299.826446 317.404494 
L 304.950413 344.132009 
L 310.07438 322.286944 
L 315.198347 351.233754 
L 320.322314 351.113792 
L 325.446281 345.115697 
L 330.570248 291.780628 
L 335.694215 348.810524 
L 340.818182 246.44702 
L 345.942149 286.898178 
L 351.066116 343.112333 
L 356.190083 356.308143 
L 361.31405 350.657937 
L 366.438017 353.656985 
L 371.561983 345.163681 
L 376.68595 354.20881 
L 381.809917 354.472726 
L 386.933884 356.404113 
L 392.057851 325.309984 
L 397.181818 347.730866 
L 402.305785 351.005827 
L 407.429752 350.214078 
L 412.553719 361.274567 
L 417.677686 339.573456 
L 422.801653 357.003923 
L 427.92562 354.688658 
L 433.049587 357.57974 
L 438.173554 345.967426 
L 443.297521 357.279835 
L 448.421488 356.176185 
L 453.545455 356.056223 
L 458.669421 355.21649 
L 463.793388 361.634453 
L 468.917355 361.802399 
L 474.041322 358.071584 
L 479.165289 358.107572 
L 484.289256 354.004875 
L 489.413223 360.050955 
L 494.53719 362.186277 
L 499.661157 362.678121 
L 504.785124 363.385897 
L 509.909091 362.990022 
L 515.033058 362.930041 
L 520.157025 361.406525 
L 525.280992 359.199226 
L 530.404959 356.212174 
L 535.528926 363.433881 
L 540.652893 362.450194 
L 545.77686 361.35854 
L 550.900826 362.71411 
L 556.024793 363.157969 
L 561.14876 362.678121 
L 566.272727 363.397893 
L 571.396694 361.718426 
L 576.520661 363.433881 
L 581.644628 363.289927 
L 586.768595 363.002018 
L 591.892562 363.181961 
L 597.016529 362.810079 
L 602.140496 363.145973 
L 607.264463 363.21795 
L 612.38843 363.026011 
L 617.512397 363.301923 
L 622.636364 363.301923 
" clip-path="url(#pf46ca2d652)" style="fill: none; stroke: #ffa500; stroke-width: 1.5; stroke-linecap: square"/>
    <defs>
     <path id="m4b1283c8a9" d="M 0 3 
C 0.795609 3 1.55874 2.683901 2.12132 2.12132 
C 2.683901 1.55874 3 0.795609 3 0 
C 3 -0.795609 2.683901 -1.55874 2.12132 -2.12132 
C 1.55874 -2.683901 0.795609 -3 0 -3 
C -0.795609 -3 -1.55874 -2.683901 -2.12132 -2.12132 
C -2.683901 -1.55874 -3 -0.795609 -3 0 
C -3 0.795609 -2.683901 1.55874 -2.12132 2.12132 
C -1.55874 2.683901 -0.795609 3 0 3 
z
" style="stroke: #ffa500"/>
    </defs>
    <g clip-path="url(#pf46ca2d652)">
     <use xlink:href="#m4b1283c8a9" x="115.363636" y="259.594846" style="fill: #ffa500; stroke: #ffa500"/>
     <use xlink:href="#m4b1283c8a9" x="120.487603" y="294.743688" style="fill: #ffa500; stroke: #ffa500"/>
     <use xlink:href="#m4b1283c8a9" x="125.61157" y="330.672282" style="fill: #ffa500; stroke: #ffa500"/>
     <use xlink:href="#m4b1283c8a9" x="130.735537" y="333.07152" style="fill: #ffa500; stroke: #ffa500"/>
     <use xlink:href="#m4b1283c8a9" x="135.859504" y="323.738483" style="fill: #ffa500; stroke: #ffa500"/>
     <use xlink:href="#m4b1283c8a9" x="140.983471" y="276.269553" style="fill: #ffa500; stroke: #ffa500"/>
     <use xlink:href="#m4b1283c8a9" x="146.107438" y="338.985643" style="fill: #ffa500; stroke: #ffa500"/>
     <use xlink:href="#m4b1283c8a9" x="151.231405" y="327.68523" style="fill: #ffa500; stroke: #ffa500"/>
     <use xlink:href="#m4b1283c8a9" x="156.355372" y="311.382406" style="fill: #ffa500; stroke: #ffa500"/>
     <use xlink:href="#m4b1283c8a9" x="161.479339" y="343.640165" style="fill: #ffa500; stroke: #ffa500"/>
     <use xlink:href="#m4b1283c8a9" x="166.603306" y="350.765903" style="fill: #ffa500; stroke: #ffa500"/>
     <use xlink:href="#m4b1283c8a9" x="171.727273" y="66.96" style="fill: #ffa500; stroke: #ffa500"/>
     <use xlink:href="#m4b1283c8a9" x="176.85124" y="324.254319" style="fill: #ffa500; stroke: #ffa500"/>
     <use xlink:href="#m4b1283c8a9" x="181.975207" y="345.943434" style="fill: #ffa500; stroke: #ffa500"/>
     <use xlink:href="#m4b1283c8a9" x="187.099174" y="333.32344" style="fill: #ffa500; stroke: #ffa500"/>
     <use xlink:href="#m4b1283c8a9" x="192.22314" y="152.900717" style="fill: #ffa500; stroke: #ffa500"/>
     <use xlink:href="#m4b1283c8a9" x="197.347107" y="347.670885" style="fill: #ffa500; stroke: #ffa500"/>
     <use xlink:href="#m4b1283c8a9" x="202.471074" y="250.993577" style="fill: #ffa500; stroke: #ffa500"/>
     <use xlink:href="#m4b1283c8a9" x="207.595041" y="153.752447" style="fill: #ffa500; stroke: #ffa500"/>
     <use xlink:href="#m4b1283c8a9" x="212.719008" y="346.135373" style="fill: #ffa500; stroke: #ffa500"/>
     <use xlink:href="#m4b1283c8a9" x="217.842975" y="225.837563" style="fill: #ffa500; stroke: #ffa500"/>
     <use xlink:href="#m4b1283c8a9" x="222.966942" y="96.038769" style="fill: #ffa500; stroke: #ffa500"/>
     <use xlink:href="#m4b1283c8a9" x="228.090909" y="226.557334" style="fill: #ffa500; stroke: #ffa500"/>
     <use xlink:href="#m4b1283c8a9" x="233.214876" y="351.953526" style="fill: #ffa500; stroke: #ffa500"/>
     <use xlink:href="#m4b1283c8a9" x="238.338843" y="332.555684" style="fill: #ffa500; stroke: #ffa500"/>
     <use xlink:href="#m4b1283c8a9" x="243.46281" y="180.443973" style="fill: #ffa500; stroke: #ffa500"/>
     <use xlink:href="#m4b1283c8a9" x="248.586777" y="342.164633" style="fill: #ffa500; stroke: #ffa500"/>
     <use xlink:href="#m4b1283c8a9" x="253.710744" y="319.02398" style="fill: #ffa500; stroke: #ffa500"/>
     <use xlink:href="#m4b1283c8a9" x="258.834711" y="351.821568" style="fill: #ffa500; stroke: #ffa500"/>
     <use xlink:href="#m4b1283c8a9" x="263.958678" y="221.314998" style="fill: #ffa500; stroke: #ffa500"/>
     <use xlink:href="#m4b1283c8a9" x="269.082645" y="344.575868" style="fill: #ffa500; stroke: #ffa500"/>
     <use xlink:href="#m4b1283c8a9" x="274.206612" y="345.895449" style="fill: #ffa500; stroke: #ffa500"/>
     <use xlink:href="#m4b1283c8a9" x="279.330579" y="346.435278" style="fill: #ffa500; stroke: #ffa500"/>
     <use xlink:href="#m4b1283c8a9" x="284.454545" y="336.862317" style="fill: #ffa500; stroke: #ffa500"/>
     <use xlink:href="#m4b1283c8a9" x="289.578512" y="353.800939" style="fill: #ffa500; stroke: #ffa500"/>
     <use xlink:href="#m4b1283c8a9" x="294.702479" y="317.620425" style="fill: #ffa500; stroke: #ffa500"/>
     <use xlink:href="#m4b1283c8a9" x="299.826446" y="317.404494" style="fill: #ffa500; stroke: #ffa500"/>
     <use xlink:href="#m4b1283c8a9" x="304.950413" y="344.132009" style="fill: #ffa500; stroke: #ffa500"/>
     <use xlink:href="#m4b1283c8a9" x="310.07438" y="322.286944" style="fill: #ffa500; stroke: #ffa500"/>
     <use xlink:href="#m4b1283c8a9" x="315.198347" y="351.233754" style="fill: #ffa500; stroke: #ffa500"/>
     <use xlink:href="#m4b1283c8a9" x="320.322314" y="351.113792" style="fill: #ffa500; stroke: #ffa500"/>
     <use xlink:href="#m4b1283c8a9" x="325.446281" y="345.115697" style="fill: #ffa500; stroke: #ffa500"/>
     <use xlink:href="#m4b1283c8a9" x="330.570248" y="291.780628" style="fill: #ffa500; stroke: #ffa500"/>
     <use xlink:href="#m4b1283c8a9" x="335.694215" y="348.810524" style="fill: #ffa500; stroke: #ffa500"/>
     <use xlink:href="#m4b1283c8a9" x="340.818182" y="246.44702" style="fill: #ffa500; stroke: #ffa500"/>
     <use xlink:href="#m4b1283c8a9" x="345.942149" y="286.898178" style="fill: #ffa500; stroke: #ffa500"/>
     <use xlink:href="#m4b1283c8a9" x="351.066116" y="343.112333" style="fill: #ffa500; stroke: #ffa500"/>
     <use xlink:href="#m4b1283c8a9" x="356.190083" y="356.308143" style="fill: #ffa500; stroke: #ffa500"/>
     <use xlink:href="#m4b1283c8a9" x="361.31405" y="350.657937" style="fill: #ffa500; stroke: #ffa500"/>
     <use xlink:href="#m4b1283c8a9" x="366.438017" y="353.656985" style="fill: #ffa500; stroke: #ffa500"/>
     <use xlink:href="#m4b1283c8a9" x="371.561983" y="345.163681" style="fill: #ffa500; stroke: #ffa500"/>
     <use xlink:href="#m4b1283c8a9" x="376.68595" y="354.20881" style="fill: #ffa500; stroke: #ffa500"/>
     <use xlink:href="#m4b1283c8a9" x="381.809917" y="354.472726" style="fill: #ffa500; stroke: #ffa500"/>
     <use xlink:href="#m4b1283c8a9" x="386.933884" y="356.404113" style="fill: #ffa500; stroke: #ffa500"/>
     <use xlink:href="#m4b1283c8a9" x="392.057851" y="325.309984" style="fill: #ffa500; stroke: #ffa500"/>
     <use xlink:href="#m4b1283c8a9" x="397.181818" y="347.730866" style="fill: #ffa500; stroke: #ffa500"/>
     <use xlink:href="#m4b1283c8a9" x="402.305785" y="351.005827" style="fill: #ffa500; stroke: #ffa500"/>
     <use xlink:href="#m4b1283c8a9" x="407.429752" y="350.214078" style="fill: #ffa500; stroke: #ffa500"/>
     <use xlink:href="#m4b1283c8a9" x="412.553719" y="361.274567" style="fill: #ffa500; stroke: #ffa500"/>
     <use xlink:href="#m4b1283c8a9" x="417.677686" y="339.573456" style="fill: #ffa500; stroke: #ffa500"/>
     <use xlink:href="#m4b1283c8a9" x="422.801653" y="357.003923" style="fill: #ffa500; stroke: #ffa500"/>
     <use xlink:href="#m4b1283c8a9" x="427.92562" y="354.688658" style="fill: #ffa500; stroke: #ffa500"/>
     <use xlink:href="#m4b1283c8a9" x="433.049587" y="357.57974" style="fill: #ffa500; stroke: #ffa500"/>
     <use xlink:href="#m4b1283c8a9" x="438.173554" y="345.967426" style="fill: #ffa500; stroke: #ffa500"/>
     <use xlink:href="#m4b1283c8a9" x="443.297521" y="357.279835" style="fill: #ffa500; stroke: #ffa500"/>
     <use xlink:href="#m4b1283c8a9" x="448.421488" y="356.176185" style="fill: #ffa500; stroke: #ffa500"/>
     <use xlink:href="#m4b1283c8a9" x="453.545455" y="356.056223" style="fill: #ffa500; stroke: #ffa500"/>
     <use xlink:href="#m4b1283c8a9" x="458.669421" y="355.21649" style="fill: #ffa500; stroke: #ffa500"/>
     <use xlink:href="#m4b1283c8a9" x="463.793388" y="361.634453" style="fill: #ffa500; stroke: #ffa500"/>
     <use xlink:href="#m4b1283c8a9" x="468.917355" y="361.802399" style="fill: #ffa500; stroke: #ffa500"/>
     <use xlink:href="#m4b1283c8a9" x="474.041322" y="358.071584" style="fill: #ffa500; stroke: #ffa500"/>
     <use xlink:href="#m4b1283c8a9" x="479.165289" y="358.107572" style="fill: #ffa500; stroke: #ffa500"/>
     <use xlink:href="#m4b1283c8a9" x="484.289256" y="354.004875" style="fill: #ffa500; stroke: #ffa500"/>
     <use xlink:href="#m4b1283c8a9" x="489.413223" y="360.050955" style="fill: #ffa500; stroke: #ffa500"/>
     <use xlink:href="#m4b1283c8a9" x="494.53719" y="362.186277" style="fill: #ffa500; stroke: #ffa500"/>
     <use xlink:href="#m4b1283c8a9" x="499.661157" y="362.678121" style="fill: #ffa500; stroke: #ffa500"/>
     <use xlink:href="#m4b1283c8a9" x="504.785124" y="363.385897" style="fill: #ffa500; stroke: #ffa500"/>
     <use xlink:href="#m4b1283c8a9" x="509.909091" y="362.990022" style="fill: #ffa500; stroke: #ffa500"/>
     <use xlink:href="#m4b1283c8a9" x="515.033058" y="362.930041" style="fill: #ffa500; stroke: #ffa500"/>
     <use xlink:href="#m4b1283c8a9" x="520.157025" y="361.406525" style="fill: #ffa500; stroke: #ffa500"/>
     <use xlink:href="#m4b1283c8a9" x="525.280992" y="359.199226" style="fill: #ffa500; stroke: #ffa500"/>
     <use xlink:href="#m4b1283c8a9" x="530.404959" y="356.212174" style="fill: #ffa500; stroke: #ffa500"/>
     <use xlink:href="#m4b1283c8a9" x="535.528926" y="363.433881" style="fill: #ffa500; stroke: #ffa500"/>
     <use xlink:href="#m4b1283c8a9" x="540.652893" y="362.450194" style="fill: #ffa500; stroke: #ffa500"/>
     <use xlink:href="#m4b1283c8a9" x="545.77686" y="361.35854" style="fill: #ffa500; stroke: #ffa500"/>
     <use xlink:href="#m4b1283c8a9" x="550.900826" y="362.71411" style="fill: #ffa500; stroke: #ffa500"/>
     <use xlink:href="#m4b1283c8a9" x="556.024793" y="363.157969" style="fill: #ffa500; stroke: #ffa500"/>
     <use xlink:href="#m4b1283c8a9" x="561.14876" y="362.678121" style="fill: #ffa500; stroke: #ffa500"/>
     <use xlink:href="#m4b1283c8a9" x="566.272727" y="363.397893" style="fill: #ffa500; stroke: #ffa500"/>
     <use xlink:href="#m4b1283c8a9" x="571.396694" y="361.718426" style="fill: #ffa500; stroke: #ffa500"/>
     <use xlink:href="#m4b1283c8a9" x="576.520661" y="363.433881" style="fill: #ffa500; stroke: #ffa500"/>
     <use xlink:href="#m4b1283c8a9" x="581.644628" y="363.289927" style="fill: #ffa500; stroke: #ffa500"/>
     <use xlink:href="#m4b1283c8a9" x="586.768595" y="363.002018" style="fill: #ffa500; stroke: #ffa500"/>
     <use xlink:href="#m4b1283c8a9" x="591.892562" y="363.181961" style="fill: #ffa500; stroke: #ffa500"/>
     <use xlink:href="#m4b1283c8a9" x="597.016529" y="362.810079" style="fill: #ffa500; stroke: #ffa500"/>
     <use xlink:href="#m4b1283c8a9" x="602.140496" y="363.145973" style="fill: #ffa500; stroke: #ffa500"/>
     <use xlink:href="#m4b1283c8a9" x="607.264463" y="363.21795" style="fill: #ffa500; stroke: #ffa500"/>
     <use xlink:href="#m4b1283c8a9" x="612.38843" y="363.026011" style="fill: #ffa500; stroke: #ffa500"/>
     <use xlink:href="#m4b1283c8a9" x="617.512397" y="363.301923" style="fill: #ffa500; stroke: #ffa500"/>
     <use xlink:href="#m4b1283c8a9" x="622.636364" y="363.301923" style="fill: #ffa500; stroke: #ffa500"/>
    </g>
   </g>
   <g id="patch_3">
    <path d="M 90 384.48 
L 90 51.84 
" style="fill: none; stroke: #000000; stroke-width: 0.8; stroke-linejoin: miter; stroke-linecap: square"/>
   </g>
   <g id="patch_4">
    <path d="M 648 384.48 
L 648 51.84 
" style="fill: none; stroke: #000000; stroke-width: 0.8; stroke-linejoin: miter; stroke-linecap: square"/>
   </g>
   <g id="patch_5">
    <path d="M 90 384.48 
L 648 384.48 
" style="fill: none; stroke: #000000; stroke-width: 0.8; stroke-linejoin: miter; stroke-linecap: square"/>
   </g>
   <g id="patch_6">
    <path d="M 90 51.84 
L 648 51.84 
" style="fill: none; stroke: #000000; stroke-width: 0.8; stroke-linejoin: miter; stroke-linecap: square"/>
   </g>
   <g id="patch_7">
    <path d="M 546.624327 355.031193 
Q 541.204791 358.984499 535.785254 362.937804 
Q 535.874332 356.230192 535.963409 349.522579 
z
" style="fill: #ff0000; stroke: #000000; stroke-linecap: round"/>
   </g>
   <g id="text_15">
    <!-- Min Loss: 0.0720 -->
    <g style="fill: #ff0000" transform="translate(540.652893 340.239877) scale(0.1 -0.1)">
     <defs>
      <path id="DejaVuSans-4d" d="M 628 4666 
L 1569 4666 
L 2759 1491 
L 3956 4666 
L 4897 4666 
L 4897 0 
L 4281 0 
L 4281 4097 
L 3078 897 
L 2444 897 
L 1241 4097 
L 1241 0 
L 628 0 
L 628 4666 
z
" transform="scale(0.015625)"/>
      <path id="DejaVuSans-69" d="M 603 3500 
L 1178 3500 
L 1178 0 
L 603 0 
L 603 3500 
z
M 603 4863 
L 1178 4863 
L 1178 4134 
L 603 4134 
L 603 4863 
z
" transform="scale(0.015625)"/>
      <path id="DejaVuSans-6e" d="M 3513 2113 
L 3513 0 
L 2938 0 
L 2938 2094 
Q 2938 2591 2744 2837 
Q 2550 3084 2163 3084 
Q 1697 3084 1428 2787 
Q 1159 2491 1159 1978 
L 1159 0 
L 581 0 
L 581 3500 
L 1159 3500 
L 1159 2956 
Q 1366 3272 1645 3428 
Q 1925 3584 2291 3584 
Q 2894 3584 3203 3211 
Q 3513 2838 3513 2113 
z
" transform="scale(0.015625)"/>
      <path id="DejaVuSans-20" transform="scale(0.015625)"/>
      <path id="DejaVuSans-3a" d="M 750 794 
L 1409 794 
L 1409 0 
L 750 0 
L 750 794 
z
M 750 3309 
L 1409 3309 
L 1409 2516 
L 750 2516 
L 750 3309 
z
" transform="scale(0.015625)"/>
      <path id="DejaVuSans-37" d="M 525 4666 
L 3525 4666 
L 3525 4397 
L 1831 0 
L 1172 0 
L 2766 4134 
L 525 4134 
L 525 4666 
z
" transform="scale(0.015625)"/>
     </defs>
     <use xlink:href="#DejaVuSans-4d"/>
     <use xlink:href="#DejaVuSans-69" x="86.279297"/>
     <use xlink:href="#DejaVuSans-6e" x="114.0625"/>
     <use xlink:href="#DejaVuSans-20" x="177.441406"/>
     <use xlink:href="#DejaVuSans-4c" x="209.228516"/>
     <use xlink:href="#DejaVuSans-6f" x="263.191406"/>
     <use xlink:href="#DejaVuSans-73" x="324.373047"/>
     <use xlink:href="#DejaVuSans-73" x="376.472656"/>
     <use xlink:href="#DejaVuSans-3a" x="428.572266"/>
     <use xlink:href="#DejaVuSans-20" x="462.263672"/>
     <use xlink:href="#DejaVuSans-30" x="494.050781"/>
     <use xlink:href="#DejaVuSans-2e" x="557.673828"/>
     <use xlink:href="#DejaVuSans-30" x="589.460938"/>
     <use xlink:href="#DejaVuSans-37" x="653.083984"/>
     <use xlink:href="#DejaVuSans-32" x="716.707031"/>
     <use xlink:href="#DejaVuSans-30" x="780.330078"/>
    </g>
    <!-- Epoch: 83 -->
    <g style="fill: #ff0000" transform="translate(540.652893 351.43769) scale(0.1 -0.1)">
     <defs>
      <path id="DejaVuSans-33" d="M 2597 2516 
Q 3050 2419 3304 2112 
Q 3559 1806 3559 1356 
Q 3559 666 3084 287 
Q 2609 -91 1734 -91 
Q 1441 -91 1130 -33 
Q 819 25 488 141 
L 488 750 
Q 750 597 1062 519 
Q 1375 441 1716 441 
Q 2309 441 2620 675 
Q 2931 909 2931 1356 
Q 2931 1769 2642 2001 
Q 2353 2234 1838 2234 
L 1294 2234 
L 1294 2753 
L 1863 2753 
Q 2328 2753 2575 2939 
Q 2822 3125 2822 3475 
Q 2822 3834 2567 4026 
Q 2313 4219 1838 4219 
Q 1578 4219 1281 4162 
Q 984 4106 628 3988 
L 628 4550 
Q 988 4650 1302 4700 
Q 1616 4750 1894 4750 
Q 2613 4750 3031 4423 
Q 3450 4097 3450 3541 
Q 3450 3153 3228 2886 
Q 3006 2619 2597 2516 
z
" transform="scale(0.015625)"/>
     </defs>
     <use xlink:href="#DejaVuSans-45"/>
     <use xlink:href="#DejaVuSans-70" x="63.183594"/>
     <use xlink:href="#DejaVuSans-6f" x="126.660156"/>
     <use xlink:href="#DejaVuSans-63" x="187.841797"/>
     <use xlink:href="#DejaVuSans-68" x="242.822266"/>
     <use xlink:href="#DejaVuSans-3a" x="306.201172"/>
     <use xlink:href="#DejaVuSans-20" x="339.892578"/>
     <use xlink:href="#DejaVuSans-38" x="371.679688"/>
     <use xlink:href="#DejaVuSans-33" x="435.302734"/>
    </g>
   </g>
   <g id="text_16">
    <!-- Training and Validation Loss -->
    <g transform="translate(285.530625 45.84) scale(0.12 -0.12)">
     <defs>
      <path id="DejaVuSans-54" d="M -19 4666 
L 3928 4666 
L 3928 4134 
L 2272 4134 
L 2272 0 
L 1638 0 
L 1638 4134 
L -19 4134 
L -19 4666 
z
" transform="scale(0.015625)"/>
      <path id="DejaVuSans-72" d="M 2631 2963 
Q 2534 3019 2420 3045 
Q 2306 3072 2169 3072 
Q 1681 3072 1420 2755 
Q 1159 2438 1159 1844 
L 1159 0 
L 581 0 
L 581 3500 
L 1159 3500 
L 1159 2956 
Q 1341 3275 1631 3429 
Q 1922 3584 2338 3584 
Q 2397 3584 2469 3576 
Q 2541 3569 2628 3553 
L 2631 2963 
z
" transform="scale(0.015625)"/>
      <path id="DejaVuSans-61" d="M 2194 1759 
Q 1497 1759 1228 1600 
Q 959 1441 959 1056 
Q 959 750 1161 570 
Q 1363 391 1709 391 
Q 2188 391 2477 730 
Q 2766 1069 2766 1631 
L 2766 1759 
L 2194 1759 
z
M 3341 1997 
L 3341 0 
L 2766 0 
L 2766 531 
Q 2569 213 2275 61 
Q 1981 -91 1556 -91 
Q 1019 -91 701 211 
Q 384 513 384 1019 
Q 384 1609 779 1909 
Q 1175 2209 1959 2209 
L 2766 2209 
L 2766 2266 
Q 2766 2663 2505 2880 
Q 2244 3097 1772 3097 
Q 1472 3097 1187 3025 
Q 903 2953 641 2809 
L 641 3341 
Q 956 3463 1253 3523 
Q 1550 3584 1831 3584 
Q 2591 3584 2966 3190 
Q 3341 2797 3341 1997 
z
" transform="scale(0.015625)"/>
      <path id="DejaVuSans-67" d="M 2906 1791 
Q 2906 2416 2648 2759 
Q 2391 3103 1925 3103 
Q 1463 3103 1205 2759 
Q 947 2416 947 1791 
Q 947 1169 1205 825 
Q 1463 481 1925 481 
Q 2391 481 2648 825 
Q 2906 1169 2906 1791 
z
M 3481 434 
Q 3481 -459 3084 -895 
Q 2688 -1331 1869 -1331 
Q 1566 -1331 1297 -1286 
Q 1028 -1241 775 -1147 
L 775 -588 
Q 1028 -725 1275 -790 
Q 1522 -856 1778 -856 
Q 2344 -856 2625 -561 
Q 2906 -266 2906 331 
L 2906 616 
Q 2728 306 2450 153 
Q 2172 0 1784 0 
Q 1141 0 747 490 
Q 353 981 353 1791 
Q 353 2603 747 3093 
Q 1141 3584 1784 3584 
Q 2172 3584 2450 3431 
Q 2728 3278 2906 2969 
L 2906 3500 
L 3481 3500 
L 3481 434 
z
" transform="scale(0.015625)"/>
      <path id="DejaVuSans-64" d="M 2906 2969 
L 2906 4863 
L 3481 4863 
L 3481 0 
L 2906 0 
L 2906 525 
Q 2725 213 2448 61 
Q 2172 -91 1784 -91 
Q 1150 -91 751 415 
Q 353 922 353 1747 
Q 353 2572 751 3078 
Q 1150 3584 1784 3584 
Q 2172 3584 2448 3432 
Q 2725 3281 2906 2969 
z
M 947 1747 
Q 947 1113 1208 752 
Q 1469 391 1925 391 
Q 2381 391 2643 752 
Q 2906 1113 2906 1747 
Q 2906 2381 2643 2742 
Q 2381 3103 1925 3103 
Q 1469 3103 1208 2742 
Q 947 2381 947 1747 
z
" transform="scale(0.015625)"/>
      <path id="DejaVuSans-56" d="M 1831 0 
L 50 4666 
L 709 4666 
L 2188 738 
L 3669 4666 
L 4325 4666 
L 2547 0 
L 1831 0 
z
" transform="scale(0.015625)"/>
      <path id="DejaVuSans-6c" d="M 603 4863 
L 1178 4863 
L 1178 0 
L 603 0 
L 603 4863 
z
" transform="scale(0.015625)"/>
      <path id="DejaVuSans-74" d="M 1172 4494 
L 1172 3500 
L 2356 3500 
L 2356 3053 
L 1172 3053 
L 1172 1153 
Q 1172 725 1289 603 
Q 1406 481 1766 481 
L 2356 481 
L 2356 0 
L 1766 0 
Q 1100 0 847 248 
Q 594 497 594 1153 
L 594 3053 
L 172 3053 
L 172 3500 
L 594 3500 
L 594 4494 
L 1172 4494 
z
" transform="scale(0.015625)"/>
     </defs>
     <use xlink:href="#DejaVuSans-54"/>
     <use xlink:href="#DejaVuSans-72" x="46.333984"/>
     <use xlink:href="#DejaVuSans-61" x="87.447266"/>
     <use xlink:href="#DejaVuSans-69" x="148.726562"/>
     <use xlink:href="#DejaVuSans-6e" x="176.509766"/>
     <use xlink:href="#DejaVuSans-69" x="239.888672"/>
     <use xlink:href="#DejaVuSans-6e" x="267.671875"/>
     <use xlink:href="#DejaVuSans-67" x="331.050781"/>
     <use xlink:href="#DejaVuSans-20" x="394.527344"/>
     <use xlink:href="#DejaVuSans-61" x="426.314453"/>
     <use xlink:href="#DejaVuSans-6e" x="487.59375"/>
     <use xlink:href="#DejaVuSans-64" x="550.972656"/>
     <use xlink:href="#DejaVuSans-20" x="614.449219"/>
     <use xlink:href="#DejaVuSans-56" x="646.236328"/>
     <use xlink:href="#DejaVuSans-61" x="706.894531"/>
     <use xlink:href="#DejaVuSans-6c" x="768.173828"/>
     <use xlink:href="#DejaVuSans-69" x="795.957031"/>
     <use xlink:href="#DejaVuSans-64" x="823.740234"/>
     <use xlink:href="#DejaVuSans-61" x="887.216797"/>
     <use xlink:href="#DejaVuSans-74" x="948.496094"/>
     <use xlink:href="#DejaVuSans-69" x="987.705078"/>
     <use xlink:href="#DejaVuSans-6f" x="1015.488281"/>
     <use xlink:href="#DejaVuSans-6e" x="1076.669922"/>
     <use xlink:href="#DejaVuSans-20" x="1140.048828"/>
     <use xlink:href="#DejaVuSans-4c" x="1171.835938"/>
     <use xlink:href="#DejaVuSans-6f" x="1225.798828"/>
     <use xlink:href="#DejaVuSans-73" x="1286.980469"/>
     <use xlink:href="#DejaVuSans-73" x="1339.080078"/>
    </g>
   </g>
   <g id="legend_1">
    <g id="patch_8">
     <path d="M 534.50625 89.19625 
L 641 89.19625 
Q 643 89.19625 643 87.19625 
L 643 58.84 
Q 643 56.84 641 56.84 
L 534.50625 56.84 
Q 532.50625 56.84 532.50625 58.84 
L 532.50625 87.19625 
Q 532.50625 89.19625 534.50625 89.19625 
z
" style="fill: #ffffff; opacity: 0.8; stroke: #cccccc; stroke-linejoin: miter"/>
    </g>
    <g id="line2d_27">
     <path d="M 536.50625 64.938437 
L 546.50625 64.938437 
L 556.50625 64.938437 
" style="fill: none; stroke: #0000ff; stroke-width: 1.5; stroke-linecap: square"/>
     <g>
      <use xlink:href="#m75609d3b14" x="546.50625" y="64.938437" style="fill: #0000ff; stroke: #0000ff"/>
     </g>
    </g>
    <g id="text_17">
     <!-- Training Loss -->
     <g transform="translate(564.50625 68.438437) scale(0.1 -0.1)">
      <use xlink:href="#DejaVuSans-54"/>
      <use xlink:href="#DejaVuSans-72" x="46.333984"/>
      <use xlink:href="#DejaVuSans-61" x="87.447266"/>
      <use xlink:href="#DejaVuSans-69" x="148.726562"/>
      <use xlink:href="#DejaVuSans-6e" x="176.509766"/>
      <use xlink:href="#DejaVuSans-69" x="239.888672"/>
      <use xlink:href="#DejaVuSans-6e" x="267.671875"/>
      <use xlink:href="#DejaVuSans-67" x="331.050781"/>
      <use xlink:href="#DejaVuSans-20" x="394.527344"/>
      <use xlink:href="#DejaVuSans-4c" x="426.314453"/>
      <use xlink:href="#DejaVuSans-6f" x="480.277344"/>
      <use xlink:href="#DejaVuSans-73" x="541.458984"/>
      <use xlink:href="#DejaVuSans-73" x="593.558594"/>
     </g>
    </g>
    <g id="line2d_28">
     <path d="M 536.50625 79.616562 
L 546.50625 79.616562 
L 556.50625 79.616562 
" style="fill: none; stroke: #ffa500; stroke-width: 1.5; stroke-linecap: square"/>
     <g>
      <use xlink:href="#m4b1283c8a9" x="546.50625" y="79.616562" style="fill: #ffa500; stroke: #ffa500"/>
     </g>
    </g>
    <g id="text_18">
     <!-- Validation Loss -->
     <g transform="translate(564.50625 83.116562) scale(0.1 -0.1)">
      <use xlink:href="#DejaVuSans-56"/>
      <use xlink:href="#DejaVuSans-61" x="60.658203"/>
      <use xlink:href="#DejaVuSans-6c" x="121.9375"/>
      <use xlink:href="#DejaVuSans-69" x="149.720703"/>
      <use xlink:href="#DejaVuSans-64" x="177.503906"/>
      <use xlink:href="#DejaVuSans-61" x="240.980469"/>
      <use xlink:href="#DejaVuSans-74" x="302.259766"/>
      <use xlink:href="#DejaVuSans-69" x="341.46875"/>
      <use xlink:href="#DejaVuSans-6f" x="369.251953"/>
      <use xlink:href="#DejaVuSans-6e" x="430.433594"/>
      <use xlink:href="#DejaVuSans-20" x="493.8125"/>
      <use xlink:href="#DejaVuSans-4c" x="525.599609"/>
      <use xlink:href="#DejaVuSans-6f" x="579.5625"/>
      <use xlink:href="#DejaVuSans-73" x="640.744141"/>
      <use xlink:href="#DejaVuSans-73" x="692.84375"/>
     </g>
    </g>
   </g>
  </g>
 </g>
 <defs>
  <clipPath id="pf46ca2d652">
   <rect x="90" y="51.84" width="558" height="332.64"/>
  </clipPath>
 </defs>
</svg>
